<?xml version="1.0" encoding="utf-8"?>
<!-- Generator: Adobe Illustrator 21.1.0, SVG Export Plug-In . SVG Version: 6.00 Build 0)  -->
<svg version="1.1" id="Layer_1" xmlns="http://www.w3.org/2000/svg" xmlns:xlink="http://www.w3.org/1999/xlink" x="0px" y="0px"
	 viewBox="0 0 93.5 80" style="enable-background:new 0 0 93.5 80;" xml:space="preserve">
<style type="text/css">
	.st0{fill:#FFFFFF;}
</style>
<path class="st0" d="M71.6,55.8l20.1-11.2l-14.2-0.9l8.1-7.3l-18.1,1.4c0,0-0.4-2.9-4.1-6.6C61.1,29,56,27.5,56,27.5
	s0.7-9.2-4.4-17.5c-3.3-4.3-10-5.4-16.7-7.3c5.2,14.7,3.3,20.5,3.3,20.5s-7.4-8.3-15.8-9.6c-4.9-0.3-15.1,5.1-20.6,8.7
	c19.4,10.1,21.5,20.2,21.5,20.2C16,43.3,3.5,50.7,3.5,50.7c15.4,3,20.6,6.7,20.6,6.7l-8.6,5l17.3,1.7c-1-0.7-3.2-3.4-3.7-4.9
	c-0.5-1.6-0.3-6.7,1.3-7c0.8-0.2,1.4,0.2,1.8,0.7c0-0.4,0-0.7,0-1.1c0-7.6,7.3-13,14.9-13c7.9,0,17.3,2.8,16.6,10.9
	c0.3-0.5-0.8,2.2,0,2.4c1.6,0.3,1.8,5.4,1.3,7c-0.5,1.6-2.9,4.5-3.8,5c-0.4,0.3-0.8,0.3-1,0.3c-0.1,0.6-0.3,1-0.4,1.4l11.8-0.4
	l-5.5-2.6l15.3-4.5L71.6,55.8z"/>
<path class="st0" d="M47.4,75.8c-0.1,0-0.3,0-0.3,0c-0.1,0-0.2,0-0.3,0c-0.9,0-2.5-0.1-3.8-0.8c-3.8-2.1-8.5-7.2-9-8.1
	c-0.2-0.4-0.4-1-0.6-1.8c-0.2-0.1-0.5-0.2-0.8-0.3c-1.1-0.6-3.6-3.7-4.1-5.4c-0.4-1.4-0.4-5.2,0.6-6.9c0.3-0.5,0.7-0.9,1.2-0.9
	c0.4-0.1,0.8-0.1,1.1,0c0.1-3.7,1.8-7,4.8-9.6c2.9-2.4,6.8-3.8,10.7-3.8c6.6,0,12.3,1.8,15.1,4.9c1.6,1.8,2.4,3.9,2.2,6.4
	c0.1,0.2,0,0.5-0.1,0.8c-0.2,0.6-0.3,1-0.3,1.3c0.4,0.1,0.7,0.4,0.9,0.9c1,1.7,1,5.6,0.6,6.9c-0.5,1.7-3.1,4.8-4.1,5.4
	c-0.3,0.2-0.5,0.3-0.8,0.3c-0.2,0.8-0.4,1.4-0.6,1.8c-0.5,0.9-5.1,5.9-9,8.1C49.9,75.7,48.3,75.8,47.4,75.8z M47.1,74.3L47.1,74.3
	c0,0,0.1,0,0.3,0c0.5,0,2.1,0,3.1-0.6c3.7-2,8.1-6.8,8.4-7.5c0.1-0.3,0.3-0.8,0.6-1.9l0.1-0.6l0.6,0c0.1,0,0.2,0,0.5-0.2
	c0.8-0.4,3.1-3.2,3.5-4.6c0.4-1.2,0.2-4.6-0.5-5.8c-0.1-0.2-0.2-0.3-0.3-0.3c-0.3-0.1-0.5-0.2-0.7-0.5c0,0,0,0,0-0.1l-0.1,0.1l0-0.3
	c-0.2-0.6,0-1.4,0.2-2.2l0-0.3c0.2-2.2-0.4-4.2-1.8-5.7c-2.5-2.8-7.8-4.5-14-4.5c-3.6,0-7.1,1.3-9.8,3.5c-2.8,2.3-4.3,5.4-4.3,8.8
	c0,0.3,0,0.7,0,1l0.3,2.8l-1.6-2.3c-0.3-0.4-0.6-0.5-1-0.4c-0.1,0-0.2,0.1-0.3,0.3c-0.7,1.2-0.8,4.6-0.5,5.8
	c0.4,1.4,2.7,4.2,3.5,4.6c0.3,0.2,0.5,0.2,0.5,0.2h0l0.6,0l0.1,0.6c0.3,1.1,0.5,1.7,0.6,1.9c0.4,0.7,4.8,5.5,8.4,7.5
	c1,0.6,2.6,0.6,3.1,0.6C47,74.3,47.1,74.3,47.1,74.3L47.1,74.3z"/>
<path class="st0" d="M29.7,52.1l4,4.6L33.3,53l3.3,3.1c0,0-0.7-4.3,0.1-6.6c1.1-2.3,3.9-3.6,3.9-3.6s-0.3,8.4,0.4,11.9
	c2.2-4.3,9-12.4,12.7-13.8c1.1,4.4-0.4,11.2-1.1,14.5c3.3-3.5,7.5-10.2,7.7-11.7c0,0,0.5,0.3,0.7,0.8c0.4,0.9-1,5.9-1.7,7.9
	c1-0.6,2.9-2.1,2.9-2.1l-1.8,3.8c0,0,4.7-3.1,5.2-3.9c1-1.4,3-12.5,3-12.5l-30-6.7l-11.2,8.4L29.7,52.1z"/>
</svg>
